<svg xmlns="http://www.w3.org/2000/svg" viewBox="0 0 64 64" fill="none">
  <rect width="64" height="64" rx="20" fill="#11161D" />
  <path d="M22 46V18H34.3C37.9667 18 40.8 18.8667 42.8 20.6C44.8 22.3 45.8 24.7667 45.8 28C45.8 31.2667 44.8 33.7667 42.8 35.5C40.8 37.2 37.9667 38.05 34.3 38.05H27.1V46H22ZM27.1 33.95H33.95C36.1833 33.95 37.85 33.4667 38.95 32.5C40.05 31.5333 40.6 30.0333 40.6 28C40.6 25.9667 40.05 24.4833 38.95 23.55C37.85 22.5833 36.1833 22.1 33.95 22.1H27.1V33.95Z" fill="#FF7D4F"/>
</svg>
